<svg width="1165" height="883" viewBox="0 0 1165 883" fill="none" xmlns="http://www.w3.org/2000/svg">
<path d="M819.85 836.225H735.033V796.792H809.93V758.104H735.033V717.185H822.329V677.504H688.409V875.904H819.85V836.225ZM824.329 719.185H737.033V756.104H811.93V798.792H737.033V834.225H821.85V877.904H686.409V675.504H824.329V719.185Z" fill="#FB3589"/>
<path d="M656.121 831.513H574.529V677.504H527.905V875.904H656.121V831.513ZM576.529 829.513H658.121V877.904H525.905V675.504H576.529V829.513Z" fill="#FB3589"/>
<path d="M490.656 818.616C490.656 807.374 488.011 797.785 482.721 789.849C477.595 781.747 470.238 776.043 460.648 772.736V768.769C468.915 765.297 475.28 760.336 479.744 753.889C484.229 747.642 486.542 740.464 486.682 732.355L486.688 731.568C486.688 714.642 481.162 701.481 470.107 692.085L469.576 691.641C458.525 682.511 443.129 677.804 423.389 677.519L421.465 677.504V675.504C442.414 675.504 458.965 680.28 470.851 690.099C482.795 699.966 488.688 713.885 488.688 731.568C488.688 740.391 486.258 748.245 481.369 755.055C476.887 761.517 470.618 766.514 462.648 770.079V771.333C471.975 774.836 479.248 780.639 484.385 788.739L484.896 789.523C490.099 797.684 492.656 807.412 492.656 818.616C492.656 837.124 486.518 851.776 474.094 862.303C461.71 872.794 444.405 877.904 422.456 877.904H344.816V675.504H421.465V677.504H346.816V875.904H422.456C443.777 875.904 460.371 871.018 472.239 861.245L472.801 860.776C484.705 850.691 490.656 836.637 490.656 818.616ZM442.776 814.4C442.776 808.941 440.984 804.915 437.544 802.049C434.058 799.144 428.956 797.553 421.961 797.553H395.44V830.504H421.961V832.504H393.44V795.553H421.961C429.235 795.553 434.856 797.206 438.824 800.513C442.792 803.819 444.776 808.448 444.776 814.4L444.771 814.938C444.65 820.464 442.668 824.749 438.824 827.792C434.856 830.933 429.235 832.504 421.961 832.504V830.504C428.976 830.504 434.094 828.987 437.583 826.225C440.999 823.52 442.776 819.675 442.776 814.4ZM441.784 738.761C441.784 733.673 440.022 729.901 436.591 727.185C433.102 724.422 427.984 722.904 420.969 722.904H395.44V753.872H420.969V755.872H393.44V720.904H420.969C428.243 720.904 433.864 722.475 437.832 725.616C441.8 728.758 443.784 733.139 443.784 738.761L443.778 739.253C443.658 744.313 441.676 748.365 437.832 751.408C433.864 754.384 428.243 755.872 420.969 755.872V753.872C427.982 753.872 433.106 752.437 436.599 749.832C440.057 747.09 441.784 743.468 441.784 738.761Z" fill="#FB3589"/>
<path d="M285.64 675.504L329.155 877.904H278.425L267.182 823.097H220.011L208.521 877.904H161.021L204.536 675.504H285.64ZM206.152 677.504L163.496 875.904H206.896L218.387 821.097H268.813L280.056 875.904H326.68L284.024 677.504H206.152ZM246.328 711.48L259.758 776.952H227.642L241.368 711.48H246.328ZM230.104 774.952H257.307L244.697 713.48H242.992L230.104 774.952Z" fill="#FB3589"/>
<path d="M149.808 817.129C149.808 800.43 145.013 786.79 135.424 776.209C125.835 765.462 112.194 758.684 94.5039 755.873L68.7119 752.153C63.4212 751.161 59.2048 749.177 56.0635 746.201C52.9222 743.06 51.3516 739.257 51.3516 734.793C51.3516 728.547 53.6019 723.619 58.1016 720.011L58.5439 719.665C63.3386 715.863 70.0347 713.961 78.6318 713.961L79.4023 713.968C87.3154 714.093 93.7546 716.157 98.7197 720.161C103.845 724.005 107.418 729.711 109.44 737.279L109.632 738.018H153.279C152.453 724.13 148.981 712.308 142.863 702.554C137.097 693.104 129.004 685.826 118.583 680.721L117.567 680.233C106.996 675.268 94.4861 672.708 80.0361 672.553L78.6318 672.545C63.5865 672.545 50.6073 675.191 39.6953 680.481L38.6953 680.969C28.4296 686.069 20.4135 693.264 14.6475 702.554L14.1133 703.442C8.6827 712.687 5.96777 723.716 5.96777 736.529L5.98145 738.102C6.27179 754.253 11.0619 767.535 20.3516 777.945C29.9409 788.527 43.5809 795.223 61.2715 798.033L87.0635 801.753C92.3541 802.58 96.5706 804.564 99.7119 807.705C102.853 810.681 104.424 814.401 104.424 818.865L104.417 819.466C104.277 825.627 101.964 830.47 97.4795 833.993C92.8502 837.63 86.485 839.449 78.3838 839.449V837.449C86.2033 837.449 92.0789 835.694 96.2441 832.421C100.341 829.202 102.424 824.766 102.424 818.865C102.424 814.931 101.065 811.742 98.3359 809.157L98.3164 809.139L98.2979 809.119C95.5136 806.335 91.7148 804.504 86.7549 803.729V803.729L60.9863 800.013L60.9717 800.011L60.958 800.009C42.9344 797.145 28.8365 790.285 18.8701 779.288L18.8643 779.282L18.8594 779.276C8.88844 768.102 3.96778 753.795 3.96777 736.529C3.96777 723.006 6.92846 711.303 12.9434 701.507L12.9482 701.498C18.9208 691.876 27.2243 684.434 37.8037 679.178L38.835 678.676C50.0738 673.229 63.3607 670.545 78.6318 670.545C93.9001 670.545 107.182 673.146 118.418 678.423C129.662 683.704 138.4 691.401 144.567 701.507C150.89 711.596 154.434 723.752 155.276 737.898L155.402 740.018H108.07L107.691 738.502C105.792 730.903 102.362 725.394 97.5195 721.762L97.4912 721.74L97.4639 721.718C92.7772 717.938 86.5608 715.961 78.6318 715.961C70.3065 715.961 64.1086 717.804 59.7861 721.232L59.7695 721.246L59.752 721.259C55.4959 724.488 53.3516 728.919 53.3516 734.793C53.3516 738.715 54.7041 741.999 57.4482 744.757C60.2428 747.401 64.065 749.241 69.0498 750.181L94.7891 753.894L94.8037 753.896L94.8174 753.898C112.843 756.762 126.941 763.705 136.905 774.866C146.883 785.877 151.808 800.023 151.808 817.129C151.808 830.653 148.846 842.433 142.84 852.387L142.836 852.394L142.832 852.399C136.83 862.175 128.261 869.699 117.198 874.977L117.199 874.978C106.284 880.265 93.2397 882.865 78.1357 882.865C63.2155 882.865 50.125 880.519 38.9141 875.763L38.8975 875.755L38.8809 875.748C27.8181 870.812 19.0824 863.634 12.7402 854.206C6.39517 844.774 2.83406 833.507 1.98828 820.482L1.84961 818.354H50.833L51.2744 819.751C53.1387 825.654 56.2763 830.049 60.6416 833.069C65.1947 835.942 71.0661 837.449 78.3838 837.449V839.449L77.6748 839.444C70.3871 839.349 64.3402 837.781 59.5352 834.737C54.7407 831.431 51.3512 826.636 49.3672 820.354H3.9834C4.81008 833.084 8.28227 843.996 14.3994 853.089C20.5167 862.182 28.9488 869.126 39.6953 873.921C50.2663 878.406 62.622 880.718 76.7617 880.858L78.1357 880.865C93.0154 880.865 105.746 878.303 116.327 873.178C126.738 868.213 134.822 861.23 140.578 852.23L141.128 851.354C146.734 842.064 149.624 831.067 149.799 818.364L149.808 817.129Z" fill="#FB3589"/>
<path d="M313.784 529.225H228.968V489.792H303.864V451.104H228.968V410.185H316.264V370.504H182.344V568.904H313.784V529.225ZM318.264 412.185H230.968V449.104H305.864V491.792H230.968V527.225H315.784V570.904H180.344V368.504H318.264V412.185Z" fill="#FB3589"/>
<path d="M156.504 469.704C156.504 437.63 149.064 413.077 134.184 396.048C119.304 379.019 97.8097 370.504 69.7031 370.504V368.504C98.2353 368.504 120.34 377.166 135.689 394.732C150.999 412.253 158.504 437.346 158.504 469.704C158.504 502.062 150.999 527.155 135.689 544.676C120.34 562.242 98.2353 570.904 69.7031 570.904H2.47949V368.504H69.7031V370.504H4.47949V568.904H69.7031C97.3707 568.904 118.631 560.654 133.481 544.152L134.184 543.36C148.831 526.597 156.269 502.544 156.498 471.202L156.504 469.704ZM107.88 469.704C107.88 451.027 104.509 437.573 98.1084 428.987L98.0957 428.972L98.084 428.955C91.916 420.32 82.5797 415.904 69.7031 415.904H53.1035V523.504H69.7031V525.504H51.1035V413.904H69.7031C83.0951 413.904 93.0986 418.533 99.7119 427.792C106.491 436.885 109.88 450.856 109.88 469.704L109.87 471.457C109.665 489.426 106.279 502.895 99.7119 511.864L99.3994 512.287C92.7851 521.099 82.886 525.504 69.7031 525.504V523.504C82.5938 523.504 91.9314 519.161 98.0938 510.688L98.0977 510.683C104.51 501.924 107.88 488.377 107.88 469.704Z" fill="#FB3589"/>
<path d="M1061 189.984V63.5039H1014.38V190.729L1014.38 191.863C1014.58 215.617 1020.94 234.004 1033.47 247.024C1046.01 260.044 1063.98 266.656 1087.41 266.859L1088.53 266.864C1112.13 266.864 1130.28 260.456 1142.99 247.64L1143.59 247.024C1156.12 234.004 1162.48 215.617 1162.68 191.863L1162.68 190.729V63.5039H1118.04V188.496C1118.04 200.069 1115.56 208.998 1110.6 215.28C1105.64 221.398 1098.62 224.456 1089.52 224.456V222.456C1098.11 222.456 1104.52 219.598 1109.04 214.033C1113.62 208.231 1116.04 199.809 1116.04 188.496V61.5039H1164.68V190.729C1164.68 215.377 1158.22 234.704 1145.03 248.411C1131.81 262.139 1112.87 268.864 1088.53 268.864C1064.19 268.864 1045.25 262.139 1032.03 248.411C1018.84 234.704 1012.38 215.377 1012.38 190.729V61.5039H1063V189.984C1063 200.781 1065.42 208.768 1069.97 214.233C1074.66 219.675 1081.09 222.456 1089.52 222.456V224.456L1088.69 224.447C1080.43 224.273 1073.85 221.483 1068.93 216.077L1068.44 215.528C1063.64 209.762 1061.16 201.591 1061.01 191.016L1061 189.984Z" fill="#FB3589"/>
<path d="M960.394 61.5039L1003.91 263.904H953.179L941.936 209.097H894.765L883.274 263.904H835.774L879.29 61.5039H960.394ZM880.906 63.5039L838.25 261.904H881.649L893.141 207.097H943.567L954.81 261.904H1001.43L958.777 63.5039H880.906ZM921.082 97.4805L934.512 162.952H902.396L916.122 97.4805H921.082ZM904.858 160.952H932.061L919.451 99.4805H917.746L904.858 160.952Z" fill="#FB3589"/>
<path d="M819.85 222.225H735.033V182.792H809.93V144.104H735.033V103.185H822.329V63.5039H688.409V261.904H819.85V222.225ZM824.329 105.185H737.033V142.104H811.93V184.792H737.033V220.225H821.85V263.904H686.409V61.5039H824.329V105.185Z" fill="#FB3589"/>
<path d="M661.081 107.896V63.5039H503.849V107.896H559.153V261.904H605.777V107.896H661.081ZM663.081 109.896H607.777V263.904H557.153V109.896H501.849V61.5039H663.081V109.896Z" fill="#FB3589"/>
<path d="M454.328 61.5039L497.844 263.904H447.113L435.87 209.097H388.699L377.209 263.904H329.709L373.225 61.5039H454.328ZM374.841 63.5039L332.185 261.904H375.585L387.075 207.097H437.502L448.744 261.904H495.368L452.713 63.5039H374.841ZM415.017 97.4805L428.446 162.952H396.33L410.057 97.4805H415.017ZM398.793 160.952H425.995L413.386 99.4805H411.681L398.793 160.952ZM438.427 0L469.772 48.6406H430.21L413.776 29.2432L397.344 48.6406H357.78L389.126 0H438.427ZM390.217 2L361.448 46.6406H396.416L413.776 26.1494L431.137 46.6406H466.104L437.337 2H390.217Z" fill="#FB3589"/>
<path d="M219.792 63.5039H173.168V261.904H219.792V185.769H270.384V261.904H317.008V63.5039H270.384V141.624H219.792V63.5039ZM319.008 263.904H268.384V187.769H221.792V263.904H171.168V61.5039H221.792V139.624H268.384V61.5039H319.008V263.904Z" fill="#FB3589"/>
<path d="M48.624 162.705C48.624 141.873 51.3516 126.414 56.8076 116.329C62.4289 106.079 70.6956 100.953 81.6074 100.953C90.0392 100.953 96.8181 103.846 101.943 109.633C107.234 115.419 111.037 124.265 113.352 136.169H156.008C155.047 120.313 151.68 106.706 145.909 95.3496L145.344 94.2568C139.418 83.0452 131.319 74.394 121.048 68.3027L120.048 67.7217C109.301 61.6043 96.4874 58.5449 81.6074 58.5449C55.8157 58.545 36.0586 67.3906 22.3359 85.0811L21.7051 85.916C8.56797 103.582 2.00003 129.178 2 162.705L2.00488 164.296C2.20834 197.571 8.81986 222.915 21.8398 240.329C34.8599 257.743 53.7272 266.586 78.4424 266.858L79.624 266.865C93.8423 266.865 106.159 263.889 116.575 257.938C127.157 251.986 135.507 243.471 141.624 232.394C147.907 221.151 151.543 207.593 152.535 191.722H109.88C107.4 202.799 103.68 211.066 98.7197 216.521C93.7598 221.812 87.3945 224.457 79.624 224.457V222.457C86.8754 222.457 92.6905 220.016 97.2402 215.174C101.873 210.077 105.486 202.189 107.928 191.284L108.278 189.722H154.664L154.531 191.846C153.525 207.944 149.829 221.803 143.373 233.359L143.374 233.36C137.087 244.744 128.481 253.531 117.567 259.673C106.798 265.827 94.1259 268.865 79.624 268.865C53.8022 268.865 33.901 259.801 20.2383 241.527C6.64678 223.349 0 196.976 0 162.705C2.56962e-05 128.426 6.81479 102.045 20.748 83.8643L20.7549 83.8555C34.9171 65.5982 55.3037 56.545 81.6074 56.5449C96.7639 56.5449 109.933 59.6627 121.037 65.9834C132.134 72.3002 140.827 81.4334 147.111 93.3223C153.391 105.203 156.999 119.465 158.004 136.048L158.133 138.169H111.703L111.389 136.551C109.109 124.827 105.409 116.387 100.468 110.982L100.446 110.959C95.7377 105.643 89.5252 102.953 81.6074 102.953C76.4772 102.953 72.0567 104.154 68.2773 106.497C64.4909 108.845 61.2398 112.407 58.5615 117.291C53.3491 126.933 50.624 141.982 50.624 162.705C50.624 183.433 53.1837 198.593 58.0947 208.423L58.5586 209.308C60.9111 213.652 63.7619 216.85 67.0723 218.998C70.5942 221.283 74.7529 222.457 79.624 222.457V224.457L78.6553 224.442C68.7247 224.137 61.2768 219.099 56.3115 209.329C51.3464 199.399 48.786 184.503 48.6309 164.643L48.624 162.705Z" fill="#FB3589"/>
</svg>
