<?xml version="1.0" encoding="UTF-8"?>
<svg id="Calque_1" xmlns="http://www.w3.org/2000/svg" version="1.1" viewBox="0 0 1512 982">
  <!-- Generator: Adobe Illustrator 29.8.2, SVG Export Plug-In . SVG Version: 2.1.1 Build 3)  -->
  <path d="M951.5,417.3c.4,0,.4-.7,0-.7s-.4.7,0,.7Z"/>
  <path d="M0,0v982h1512V0H0ZM958.3,504.8c.4,0,.4.7,0,.7s-.4-.7,0-.7ZM957.6,438.3c.4,0,.4.7,0,.7s-.4-.7,0-.7ZM957.9,476.3c.1.1.1,3.3,0,3.4-1,1.2-1-4.5,0-3.4ZM955.9,421.4c0,.1,0,2.6,0,2.7-.9,1.1-.9-3.8,0-2.7ZM953.2,417.3c-2.7.6,0,6.3,1,7.5.6.7,1.9-.2,2.4,1,.5,1.3-1.8.8-1.4,2.4-1.3.2-.3-1.2-.8-1.9-.2-.3-1.5-.4-2.2-1.5-.8-1.2-2.8-5.9-3-7.3-.4-2.6,1.8-6.2,1.1-8.5-.4-1.2-2.3-1.4.1-2.5,0,.4,0,.8.2,1.1.3.3,1.1.1,1.1.7,0,.3-.4.8-.3,1.2.3,3.4,2,7.2,3.7,10.2.6,2.3-2.6-.4-2-2.4ZM955.1,450.4c-.2.2-1.3,0-1.2.4.5,2.1,1.2,4.5.5,6.7-.3.9-1.3,1.2-1.6,1.8,0,.1.9,4.9-1,2.7-.6-.7.6-3.5.6-4.4,0-.8-.6-1.6-.6-2.7.1-3.2,3-6,2.7-9.2,1.1-.2.7,1.6.7,2.4,0,.7.3,1.8-.2,2.3ZM954.2,466.8c-.4,0-.4-.7,0-.7s.4.7,0,.7ZM950.5,403.7c-.4.7.9,2.5-1.4,2-.4-3.6,0-2.1,2.7-2.7.5,2.4-1.3.6-1.4.7ZM948.8,399.7c.5-.2.4,1.2.3,1.4-.9.9-2.1-.6-.3-1.4ZM950.1,399c.4,0,.4.7,0,.7s-.4-.7,0-.7ZM947.1,395.6c.8-.7,2.7,1.4,2,2-1,1-2.2-1.9-2-2ZM931.5,352.8c.1.9.3,1.8.9,2.5,4.6,6.1,3.1,6.6,5.4,13.2.2.7,1.8,2,1.2,2.5-1.4,1.4-3-1.9-3.6-2.5-.3-.3-1.1-.4-1.5-.9-1.6-2.1-2.9-9.6-3.1-12.5,0-.7-.4-2.6.7-2.4ZM907.1,332.5c.4-.5,1.1.8.7,1.4-.4.5-1.1-.8-.7-1.4ZM905.4,331.1c.4,0,.4.7,0,.7s-.4-.7,0-.7ZM891.5,298.6c0,0,0,2,0,2-.9,1.1-.9-3.1,0-2ZM890.4,301.3c.4,0,.4.7,0,.7s-.4-.7,0-.7ZM890.1,303.3v3.7c1.5,2.3,1,4.5,1.5,6.7.2.8,2.1,4.4,1.9,4.5-.3.3-4.2-1.7-4.5-2.3.3-4.2-.2-8.5,1.1-12.6ZM607.8,307.4c.4-.5,1.3,1.6,1.3,1.7,0,.2-1.2,1.2-1.3,1,0-.1,0-2.6,0-2.7ZM603.4,320.3c1,0-1,2-1,1,0,0,.9-1,1-1ZM602.4,323l-2,6.8-.5-2.2,2.6-4.5ZM596.6,336.6c.4,0,.4.7,0,.7s-.4-.7,0-.7ZM573.2,385.4c-.6.7-2.4-3.3-.3-4.1.5-.2.5,3.9.3,4.1ZM572.5,377.3c0,.1,0,2.6,0,2.7-.2.2-1.3-.8-1.3-1,0-.1.9-2.2,1.3-1.7ZM568.5,418.7l2,2c-1.3.2-2.2-.8-2-2ZM684.5,717.9l1.4,1.4c-1.4.2-1.5,0-1.4-1.4ZM858.9,729.4c-.6,1-1.5-3,.7-3.4-.2.8-.5,3-.7,3.4ZM910.5,669.9c-.3.3-.5.5-.7.8-.2.2-1.5,3.1-1.9,1.8-5.7,6.4-14.9,11.2-13.4,16.5-.4-.4-.6,1-1.3.8,2.5,2.6-5.8,7-3.2,12.2-7,1-16,2-19,8-1.3,1.9-3.4,1.8-5.3,2.8,4.6,3.1-4.7,6-6.8,7.5-.6.4-2.8,2.5-3.1,3-1.5,3.1,1.7,13.9-2.8,14.9-1.5.3-3.5-3.8-3.7-5.1-.4-3.1,1.8-4.9,2-7.5,0-.9-.6-5-1-5.7-.8-1.7-4.9-2.9-6.8-2.7-.5,0-5.5,2.4-6.1,2.8-2,1.3-3,5.4-2.9,7.6,0,2.3,3.5,9.6,1.2,11-.5.3-1.4.1-1.9.5-1.2.9-2,3.5-4.9,4.9-1.3.6-6.6,2.6-7.9,2.9-2.6.6-5.5-.2-8.4.4-2.4.6-4.2,2.7-6.6,3.6-4.3,1.7-14.3,4.3-18.7,3.4-2.2-.5-6.5-4.4-8.3-4.4-1,0-2.1,1.6-2.7,1.7-.9,0-4.6-2.1-7.5-1.9-6.3.4-13.2,8-21,6.8-.9-.1-5.2-1.9-5.8-2.4-1.1-.9-6-8.9-6.5-10.5-1-3.2,1-2.8,1.6-4.6,1.6-4.5-.4-7.4-4-10-.6-.5-5.5-3.5-5.9-3.6-.7-.2-7.7-.8-8.6-.8-1.8.1-3.1.5-4.1,1.1h0c-20.6,9.2-25.1-4.3-25.4-5.2-.2-1.1-.4-2.1-.6-3.1-.4-1.5-1.9-1.3-2.8-1.9-2.5-1.7-8.3-5.7-11.2-5.7,0,0-12.5-1.8-21,5.5s-23.9,5.1-23.9,5.1c-.5-.4-.6-1.3-1.2-1.9-3.2-2.8-6.7-2.7-8.2-7.4-1-3.1-2.1-6.5-1.6-9.8.2-1.4,1.1-2.7,1.3-4.1.6-4.6-2.1-14.1-3.5-18.8-.4-1.3-3.9-3.6-3.4-6.4-2.1,0-4.2-2.3-5.8-2.7-1.2-.3-4.8,0-4.9-.1-.2-.2.8-2.5,0-4.3-.5-1-2.8-1.3-2.5-2.4-5.9-1.8-10.1-7.1-10.9-10.4-4-16-16-20-23-32-1.6-3.2-3.2-6.5-3.8-9.7-.2,0-.4-.1-.5-.3-.2-.2-.1-5.5,0-6.5.6-6.6,5.5-13.1,7.3-19.1,1.3-4.4,1.4-10.2,2.2-14.7,3.3-17.1,7.4-28.9,1.8-46.7-.2-.6-1-1.1-1.1-1.6-.1-.7.9-1.9.5-2.2-.3-.2-1.3-.2-1.7-.7-1.8-2.6-.7-16-1-20.1-.2-3.1-1.5-8.9-2.2-12.1-.5-2.4-4.3-7.9-4.5-9.7,0-.4,2.1-6.8,2.5-7.5,1.9-3.7,4.9-6.6,6.8-10.9,2.1-4.9,1.6-6.5,2.3-11.3.7-5.3,2.5-10.8,3.4-16.3.2-1.5,1-3.4,1-4.8-.1-4.2-7-6.6-7.2-8.8-.1-1.6,3.1-6.1,3.3-8.3,1.7-1.9,2.4-4.4,3.5-6.5.3-.5,1.1-.3,1.4-.9.3-.7,1.3-4.6,1.3-5.3,0-3.1-2.6-5.1-3.2-7.6-.7-2.8-1-6.4-1.6-9.2-.3-1.2-1.4-2-1.3-3.5.2-2.5,4.3-3.8,5.8-5.1,7.6-6.4,14.3-21.9,19.2-31,3.5-6.6,3.4-7.8,5-14.7,1.3-5.3,3.5-6.8,5.4-10.9,2.3-4.8.3-6,0-10.4-.6-6,2.3-11.3,2-17.6,0-1.4-.8-2.4-.7-4,0-.8,1.9-6.7,2.1-7.1.3-.3,1.5-.4,2.2-.9,5.8-4.2,9.7-5.7,15.8-8.6,4.6-2.2,7.5-6,11.8-7.9,3.2-1.4,5.9-1.7,9-3.9,1.5-1,1.1-2.1,1.8-2.9,3.9-4.9,20.2-6,26.7-7.4,6.6-1.4,10.2-2.3,17.1-3.3,5.5-.8,12.9-4.3,17.8-4.5,1.8,0,6.5,1.5,8.7,1.8,9.8,1.3,21.4,2.8,31.2,2.1,3.3-.2,7.5-1.9,10.2-2.1,4.9-.2,10.8,1.8,16.2,1.4,3.4-.3,12.5-3.4,14.1-3.3,2.5.2,10.3,3.6,13.9,4.4,10.6,2.4,25.2,3,34.9,6.5,1.8.6,8.8,5.7,10.2,7.1,5.1,5.1,6.6,10.5,13.4,14.7,4.2,2.6,9.4,5.2,13.2,8.5,2.3,2.1,3.9,5.7,6.3,7.9.9,3.1-.7,5.1-1.1,7.5-1,6.6-2.4,17.3-1.5,23.6.6,3.8,2.6,3,4.7,4.1,7.2,3.6,9.8,13.8,16.5,17.4,4.3,2.3,6.6,3.4,10.7,6.3,1.2.9,5.1,2.7,5.7,3.8.9,1.4,1.9,8.2,2.5,10.4.7,2.3,2.3,8.6,3.2,10.2.2.3,4,4.2,4.4,4.5.8.6,1.9.7,2.8,1.3,3.9,2.7,2.6,6.5,3.2,10.4,1.1,7.3,5.1,16.5,5.9,24,.5,4.3-.3,9.1.9,13.4l7.3,11.1c-.9,5.2-3.1,10.4-4.6,15.5-.5,2.8-1.1,13.7,0,16.1.3.6,1.1.4,1.4.9.6.9,4.5,15.2,4.7,16.9.9,7.6-.8,15.5-.7,23.1,0,3.3.3,6.9.7,10.2.5,4.9.8,5.4,3.2,9.7,2.1,3.9,6.4,9.2,6.2,13.9,0,1.9-1.5,1.7-2.2,2.4-3,3.1-5.1,7.1-7.8,10.6-3.4,4.4-11.7,11.4-12.8,16.4-.3,1.3,0,2.6-.3,3.8-.2.9-1,1.7-1.2,2.9-1,6.3,3.1,14.2,4.5,20.5.9,4.1,2,9.3.8,13.3-.3.9-1.5.8-2,1.5-1.2,1.6-4.3,6.4-4.6,8.2-.5,3,0,6.9-.1,10,0,1-.6,1.9-.6,2.7,0,1.3.8,2.8.6,4.8-.2,2.4-1.6,4.6-3.1,6.4-.7.8-3.9,3-4.4,3.9-3.3,5.6-3.2,8.9-8.8,13.5-3.2,2.7-9,6.8-12.2,10ZM571.9,422.1c.9-.8,3.6,2.4,2.7,3.4-1,1.1-1.2-.3-1.5-.9-.3-.4-1.3-2.4-1.2-2.5ZM924,666.3c-.2-1.4,0-1.5,1.4-1.4l-1.4,1.4ZM942.7,643.3c-.3.5-1.2,1-1.6,1.8-2.5,4.8-2.8,7.1-6.7,11.3-1.1,1.2-1.7,1.8-2.9,2.9-.7.7-1.1,2-1.7,2.3-1.1.6-1.3-.8-.9-1.6.3-.7,1.2-1.1,1.6-1.8,2.4-4.5,2.7-10.7,8.4-12.3l3.6-6.6c-.4,1.1.7,3.5.4,4.1ZM943,626.3c-.4.5-1.1-.8-.7-1.4.4-.5,1.1.8.7,1.4ZM951.1,610.2c-.2,1.1-3.9,3.5-4.5,4.9l-4.2,9.1c-.3-2.3.4-5,1.5-7,2.2-3.9,4.7-4.1,5.3-9.6.1-1.3-.3-1.1,1.3-1-.4,1.2.7,2.9.6,3.7ZM951.5,573.4c-.4,0-.4-.7,0-.7s.4.7,0,.7ZM951.5,570.6c-.4,0-.4-.7,0-.7s.4.7,0,.7ZM953.2,604.6c0,0,.8,2,.7,2-2,1.7-2.5-4.4-.7-2ZM953.2,567.9l1.4,1.4c-1.4.2-1.5,0-1.4-1.4ZM956.6,566.6c-.5-.4.8-1.1,1.4-.7.5.4-.8,1.1-1.4.7ZM965.9,552.2c-2.1,1.5-4.6,2.7-6.4,5.1-.4.5-1.1,3.4-1.6,3.8-.6.4-2.4-.1-2.6.1-1.3,1.2,1.4,1.3,1.4,1.7,0,1.2-1.5,1.8-1.4,3.1-1.3.3-.2-2.4-1-2-.7.3-1.3,2-2,2.7-.8.8-2.1,1.2-2.4,1.8-1.4,3,.5,6.5-3.4,8.7,0,.6,1.3,0,1.4.7.2.9.4,5.1.4,6.1,0,1.4-2,2-1.8,4.7.2,2.7,1.8,2.2,2.4,3,.9,1.3-.3,4.8-.3,6.5,0,.2,1.2,5.6-.8,3.1,0-.1,0-2.1-.1-2.9-1.2-5.5-4.4-13.1-4.7-18.5,0-1.7,1.3-5.7,2.1-7.5,2.7-6.4,14.6-18.7,19.9-23.9.8-.7,3.8-2.2,4.6-1.5.2.2-3.3,5.1-3.6,5.3ZM971.5,546.2c-.1.1-1.6.2-1.4-.3.7-1.8,2.3-.6,1.4.3Z"/>
</svg>